<svg version="1.1" viewBox="0.0 0.0 100.0 100.0" fill="none" stroke="none" stroke-linecap="square" stroke-miterlimit="10" xmlns:xlink="http://www.w3.org/1999/xlink" xmlns="http://www.w3.org/2000/svg"><clipPath id="p.0"><path d="m0 0l100.0 0l0 100.0l-100.0 0l0 -100.0z" clip-rule="nonzero"/></clipPath><g clip-path="url(#p.0)"><path fill="#000000" fill-opacity="0.0" d="m0 0l100.0 0l0 100.0l-100.0 0z" fill-rule="evenodd"/><path fill="#434343" d="m0.015748031 50.18635l0 0c0 -27.614237 22.385761 -50.0 50.0 -50.0l0 0c13.260826 0 25.978523 5.267842 35.35534 14.644661c9.376823 9.37682 14.644661 22.094513 14.644661 35.35534l0 0c0 27.614239 -22.385765 49.999996 -50.0 49.999996l0 0c-27.614237 0 -50.0 -22.385757 -50.0 -49.999996z" fill-rule="evenodd"/><path fill="#e6e6e6" d="m31.055119 50.0l0 0c0 -10.471668 8.488964 -18.96063 18.960629 -18.96063l0 0c5.0286713 0 9.851383 1.997633 13.407192 5.553442c3.5558052 3.5558052 5.55344 8.378517 5.55344 13.407188l0 0c0 10.471668 -8.488964 18.960632 -18.960632 18.960632l0 0c-10.471664 0 -18.960629 -8.488964 -18.960629 -18.960632z" fill-rule="evenodd"/></g></svg>