<svg version="1.1" viewBox="0.0 0.0 96.0 96.0" fill="none" stroke="none" stroke-linecap="square" stroke-miterlimit="10" xmlns:xlink="http://www.w3.org/1999/xlink" xmlns="http://www.w3.org/2000/svg"><clipPath id="p.0"><path d="m0 0l96.0 0l0 96.0l-96.0 0l0 -96.0z" clip-rule="nonzero"/></clipPath><g clip-path="url(#p.0)"><path fill="#000000" fill-opacity="0.0" d="m0 0l96.0 0l0 96.0l-96.0 0z" fill-rule="evenodd"/><path fill="#3a0555" d="m48.0 -0.0131233595l48.0 0l0 96.0l-48.0 0z" fill-rule="evenodd"/><path fill="#000000" fill-opacity="0.0" d="m-7.9265094 0l96.0 0l0 100.18898l-96.0 0z" fill-rule="evenodd"/><path fill="#3a0555" d="m4.0734906 57.671875l5.9531255 -0.515625q0.421875 3.578125 1.96875 5.875q1.546875 2.28125 4.796874 3.703125q3.25 1.421875 7.328125 1.421875q3.609375 0 6.375 -1.078125q2.765625 -1.078125 4.109375 -2.9375q1.359375 -1.875 1.359375 -4.09375q0 -2.25 -1.3125 -3.921875q-1.296875 -1.671875 -4.28125 -2.8125q-1.921875 -0.75 -8.5 -2.328125q-6.578124 -1.578125 -9.203124 -2.984375q-3.421875 -1.78125 -5.1093755 -4.4375q-1.671875 -2.65625 -1.671875 -5.9375q0 -3.609375 2.046875 -6.75q2.0625005 -3.140625 6.0000005 -4.765625q3.937499 -1.640625 8.749999 -1.640625q5.3125 0 9.359375 1.71875q4.046875 1.703125 6.21875 5.03125q2.1875 3.3125 2.359375 7.515625l-6.0625 0.453125q-0.484375 -4.53125 -3.296875 -6.84375q-2.8125 -2.3125 -8.3125 -2.3125q-5.734375 0 -8.359374 2.109375q-2.609375 2.09375 -2.609375 5.0625q0 2.5625 1.859375 4.21875q1.8125 1.671875 9.499999 3.421875q7.703125 1.734375 10.578125 3.03125q4.15625 1.921875 6.140625 4.875q2.0 2.9375 2.0 6.78125q0 3.796875 -2.1875 7.171875q-2.1875 3.375 -6.265625 5.25q-4.078125 1.859375 -9.1875 1.859375q-6.484375 0 -10.859374 -1.890625q-4.375 -1.890625 -6.8750005 -5.671875q-2.484375 -3.796875 -2.609375 -8.578125z" fill-rule="nonzero"/><path fill="#000000" fill-opacity="0.0" d="m41.984253 0l96.0 0l0 100.18898l-96.0 0z" fill-rule="evenodd"/><path fill="#ffffff" d="m68.2655 73.0l0 -42.078125l-15.71875 0l0 -5.640625l37.8125 0l0 5.640625l-15.78125 0l0 42.078125l-6.3125 0z" fill-rule="nonzero"/></g></svg>